<?xml version="1.0" encoding="utf-8"?>
<!-- Generator: Adobe Illustrator 23.0.1, SVG Export Plug-In . SVG Version: 6.00 Build 0)  -->
<svg version="1.1" id="Capa_1" xmlns="http://www.w3.org/2000/svg" xmlns:xlink="http://www.w3.org/1999/xlink" x="0px" y="0px"
	 viewBox="0 0 550 550" style="enable-background:new 0 0 550 550;" xml:space="preserve">
<style type="text/css">
	.st0{fill:url(#SVGID_1_);stroke:#FFFFFF;stroke-width:10;stroke-miterlimit:10;}
</style>
<g>
	
		<image style="overflow:visible;opacity:0.9;" width="466" height="553" xlink:href="7A9C45FB1C27A248.png"  transform="matrix(1 0 0 1 42 -1)">
	</image>
	<g>
		<g>
			<linearGradient id="SVGID_1_" gradientUnits="userSpaceOnUse" x1="275.0006" y1="531.002" x2="275.0006" y2="19.0025">
				<stop  offset="0" style="stop-color:#7600FF;stop-opacity:0.9"/>
				<stop  offset="1" style="stop-color:#8C00D4"/>
			</linearGradient>
			<path class="st0" d="M403,420.6C370.8,465,330.6,501,282.3,529c-4.4,2.5-10.3,2.8-14.1,0c-48.7-27.6-89-63.8-121.2-108.4
				c-59.1-81.9-87.3-187.2-84.3-315.9C63.5,98,68.3,92.1,75,91.2c31.4-4.3,62.5-11.9,93.1-23.1c30.7-11.2,64.1-26.7,100.1-47.2
				c4.6-2.6,8.9-2.6,13.6,0c36.3,20.5,69.9,36,100.4,47.2c30.5,11.2,61.7,18.8,93.3,23.1c6.8,0.9,11.6,6.8,11.8,13.5
				C490.1,233.5,462.2,338.8,403,420.6z"/>
		</g>
	</g>
</g>
</svg>
